<?xml version="1.0" encoding="utf-8" ?>
<svg baseProfile="full" height="1101" version="1.1" width="732" xmlns="http://www.w3.org/2000/svg" xmlns:ev="http://www.w3.org/2001/xml-events" xmlns:xlink="http://www.w3.org/1999/xlink"><defs><pattern height="40" id="guilloche_bg" patternUnits="userSpaceOnUse" width="40"><path d="M 0,20.0 Q 10.0,0 20.0,20.0 T 40,20.0" fill="none" opacity="0.5" stroke="#8A69A6" stroke-width="1" /><path d="M 0,20.0 Q 10.0,40 20.0,20.0 T 40,20.0" fill="none" opacity="0.5" stroke="#8A69A6" stroke-width="1" /><path d="M 20.0,0 Q 0,10.0 20.0,20.0 T 20.0,40" fill="none" opacity="0.5" stroke="#8A69A6" stroke-width="1" /><path d="M 20.0,0 Q 40,10.0 20.0,20.0 T 20.0,40" fill="none" opacity="0.5" stroke="#8A69A6" stroke-width="1" /><circle cx="20.0" cy="20.0" fill="none" r="13.333333333333334" stroke="#8A69A6" stroke-width="0.5" /><circle cx="0" cy="0" fill="none" r="16.0" stroke="#8A69A6" stroke-width="0.5" /><circle cx="40" cy="0" fill="none" r="16.0" stroke="#8A69A6" stroke-width="0.5" /><circle cx="0" cy="40" fill="none" r="16.0" stroke="#8A69A6" stroke-width="0.5" /><circle cx="40" cy="40" fill="none" r="16.0" stroke="#8A69A6" stroke-width="0.5" /></pattern></defs><rect fill="white" height="100%" rx="20" ry="20" width="100%" x="0" y="0" /><rect fill="#A885C4" height="1041" stroke="#000000" stroke-width="4" width="672" x="30" y="30" /><rect fill="none" height="921" stroke="#000000" stroke-width="2" width="552" x="90" y="90" /><rect fill="none" height="861" stroke="#000000" stroke-width="2" width="492" x="120" y="120" /><g fill="none" id="border_pattern" stroke="#000000" stroke-width="1"><path d="M 120,120 Q 126.0,90 132,120 M 122,120 Q 126.0,99.0 130,120 M 132,120 Q 138.0,90 144,120 M 134,120 Q 138.0,99.0 142,120 M 144,120 Q 150.0,90 156,120 M 146,120 Q 150.0,99.0 154,120 M 156,120 Q 162.0,90 168,120 M 158,120 Q 162.0,99.0 166,120 M 168,120 Q 174.0,90 180,120 M 170,120 Q 174.0,99.0 178,120 M 180,120 Q 186.0,90 192,120 M 182,120 Q 186.0,99.0 190,120 M 192,120 Q 198.0,90 204,120 M 194,120 Q 198.0,99.0 202,120 M 204,120 Q 210.0,90 216,120 M 206,120 Q 210.0,99.0 214,120 M 216,120 Q 222.0,90 228,120 M 218,120 Q 222.0,99.0 226,120 M 228,120 Q 234.0,90 240,120 M 230,120 Q 234.0,99.0 238,120 M 240,120 Q 246.0,90 252,120 M 242,120 Q 246.0,99.0 250,120 M 252,120 Q 258.0,90 264,120 M 254,120 Q 258.0,99.0 262,120 M 264,120 Q 270.0,90 276,120 M 266,120 Q 270.0,99.0 274,120 M 276,120 Q 282.0,90 288,120 M 278,120 Q 282.0,99.0 286,120 M 288,120 Q 294.0,90 300,120 M 290,120 Q 294.0,99.0 298,120 M 300,120 Q 306.0,90 312,120 M 302,120 Q 306.0,99.0 310,120 M 312,120 Q 318.0,90 324,120 M 314,120 Q 318.0,99.0 322,120 M 324,120 Q 330.0,90 336,120 M 326,120 Q 330.0,99.0 334,120 M 336,120 Q 342.0,90 348,120 M 338,120 Q 342.0,99.0 346,120 M 348,120 Q 354.0,90 360,120 M 350,120 Q 354.0,99.0 358,120 M 360,120 Q 366.0,90 372,120 M 362,120 Q 366.0,99.0 370,120 M 372,120 Q 378.0,90 384,120 M 374,120 Q 378.0,99.0 382,120 M 384,120 Q 390.0,90 396,120 M 386,120 Q 390.0,99.0 394,120 M 396,120 Q 402.0,90 408,120 M 398,120 Q 402.0,99.0 406,120 M 408,120 Q 414.0,90 420,120 M 410,120 Q 414.0,99.0 418,120 M 420,120 Q 426.0,90 432,120 M 422,120 Q 426.0,99.0 430,120 M 432,120 Q 438.0,90 444,120 M 434,120 Q 438.0,99.0 442,120 M 444,120 Q 450.0,90 456,120 M 446,120 Q 450.0,99.0 454,120 M 456,120 Q 462.0,90 468,120 M 458,120 Q 462.0,99.0 466,120 M 468,120 Q 474.0,90 480,120 M 470,120 Q 474.0,99.0 478,120 M 480,120 Q 486.0,90 492,120 M 482,120 Q 486.0,99.0 490,120 M 492,120 Q 498.0,90 504,120 M 494,120 Q 498.0,99.0 502,120 M 504,120 Q 510.0,90 516,120 M 506,120 Q 510.0,99.0 514,120 M 516,120 Q 522.0,90 528,120 M 518,120 Q 522.0,99.0 526,120 M 528,120 Q 534.0,90 540,120 M 530,120 Q 534.0,99.0 538,120 M 540,120 Q 546.0,90 552,120 M 542,120 Q 546.0,99.0 550,120 M 552,120 Q 558.0,90 564,120 M 554,120 Q 558.0,99.0 562,120 M 564,120 Q 570.0,90 576,120 M 566,120 Q 570.0,99.0 574,120 M 576,120 Q 582.0,90 588,120 M 578,120 Q 582.0,99.0 586,120 M 588,120 Q 594.0,90 600,120 M 590,120 Q 594.0,99.0 598,120 M 600,120 Q 606.0,90 612,120 M 602,120 Q 606.0,99.0 610,120" /><path d="M 120,981 Q 126.0,1011 132,981 M 122,981 Q 126.0,1002.0 130,981 M 132,981 Q 138.0,1011 144,981 M 134,981 Q 138.0,1002.0 142,981 M 144,981 Q 150.0,1011 156,981 M 146,981 Q 150.0,1002.0 154,981 M 156,981 Q 162.0,1011 168,981 M 158,981 Q 162.0,1002.0 166,981 M 168,981 Q 174.0,1011 180,981 M 170,981 Q 174.0,1002.0 178,981 M 180,981 Q 186.0,1011 192,981 M 182,981 Q 186.0,1002.0 190,981 M 192,981 Q 198.0,1011 204,981 M 194,981 Q 198.0,1002.0 202,981 M 204,981 Q 210.0,1011 216,981 M 206,981 Q 210.0,1002.0 214,981 M 216,981 Q 222.0,1011 228,981 M 218,981 Q 222.0,1002.0 226,981 M 228,981 Q 234.0,1011 240,981 M 230,981 Q 234.0,1002.0 238,981 M 240,981 Q 246.0,1011 252,981 M 242,981 Q 246.0,1002.0 250,981 M 252,981 Q 258.0,1011 264,981 M 254,981 Q 258.0,1002.0 262,981 M 264,981 Q 270.0,1011 276,981 M 266,981 Q 270.0,1002.0 274,981 M 276,981 Q 282.0,1011 288,981 M 278,981 Q 282.0,1002.0 286,981 M 288,981 Q 294.0,1011 300,981 M 290,981 Q 294.0,1002.0 298,981 M 300,981 Q 306.0,1011 312,981 M 302,981 Q 306.0,1002.0 310,981 M 312,981 Q 318.0,1011 324,981 M 314,981 Q 318.0,1002.0 322,981 M 324,981 Q 330.0,1011 336,981 M 326,981 Q 330.0,1002.0 334,981 M 336,981 Q 342.0,1011 348,981 M 338,981 Q 342.0,1002.0 346,981 M 348,981 Q 354.0,1011 360,981 M 350,981 Q 354.0,1002.0 358,981 M 360,981 Q 366.0,1011 372,981 M 362,981 Q 366.0,1002.0 370,981 M 372,981 Q 378.0,1011 384,981 M 374,981 Q 378.0,1002.0 382,981 M 384,981 Q 390.0,1011 396,981 M 386,981 Q 390.0,1002.0 394,981 M 396,981 Q 402.0,1011 408,981 M 398,981 Q 402.0,1002.0 406,981 M 408,981 Q 414.0,1011 420,981 M 410,981 Q 414.0,1002.0 418,981 M 420,981 Q 426.0,1011 432,981 M 422,981 Q 426.0,1002.0 430,981 M 432,981 Q 438.0,1011 444,981 M 434,981 Q 438.0,1002.0 442,981 M 444,981 Q 450.0,1011 456,981 M 446,981 Q 450.0,1002.0 454,981 M 456,981 Q 462.0,1011 468,981 M 458,981 Q 462.0,1002.0 466,981 M 468,981 Q 474.0,1011 480,981 M 470,981 Q 474.0,1002.0 478,981 M 480,981 Q 486.0,1011 492,981 M 482,981 Q 486.0,1002.0 490,981 M 492,981 Q 498.0,1011 504,981 M 494,981 Q 498.0,1002.0 502,981 M 504,981 Q 510.0,1011 516,981 M 506,981 Q 510.0,1002.0 514,981 M 516,981 Q 522.0,1011 528,981 M 518,981 Q 522.0,1002.0 526,981 M 528,981 Q 534.0,1011 540,981 M 530,981 Q 534.0,1002.0 538,981 M 540,981 Q 546.0,1011 552,981 M 542,981 Q 546.0,1002.0 550,981 M 552,981 Q 558.0,1011 564,981 M 554,981 Q 558.0,1002.0 562,981 M 564,981 Q 570.0,1011 576,981 M 566,981 Q 570.0,1002.0 574,981 M 576,981 Q 582.0,1011 588,981 M 578,981 Q 582.0,1002.0 586,981 M 588,981 Q 594.0,1011 600,981 M 590,981 Q 594.0,1002.0 598,981 M 600,981 Q 606.0,1011 612,981 M 602,981 Q 606.0,1002.0 610,981" /><path d="M 120,120 Q 90,126.0 120,132 M 120,122 Q 99.0,126.0 120,130 M 120,132 Q 90,138.0 120,144 M 120,134 Q 99.0,138.0 120,142 M 120,144 Q 90,150.0 120,156 M 120,146 Q 99.0,150.0 120,154 M 120,156 Q 90,162.0 120,168 M 120,158 Q 99.0,162.0 120,166 M 120,168 Q 90,174.0 120,180 M 120,170 Q 99.0,174.0 120,178 M 120,180 Q 90,186.0 120,192 M 120,182 Q 99.0,186.0 120,190 M 120,192 Q 90,198.0 120,204 M 120,194 Q 99.0,198.0 120,202 M 120,204 Q 90,210.0 120,216 M 120,206 Q 99.0,210.0 120,214 M 120,216 Q 90,222.0 120,228 M 120,218 Q 99.0,222.0 120,226 M 120,228 Q 90,234.0 120,240 M 120,230 Q 99.0,234.0 120,238 M 120,240 Q 90,246.0 120,252 M 120,242 Q 99.0,246.0 120,250 M 120,252 Q 90,258.0 120,264 M 120,254 Q 99.0,258.0 120,262 M 120,264 Q 90,270.0 120,276 M 120,266 Q 99.0,270.0 120,274 M 120,276 Q 90,282.0 120,288 M 120,278 Q 99.0,282.0 120,286 M 120,288 Q 90,294.0 120,300 M 120,290 Q 99.0,294.0 120,298 M 120,300 Q 90,306.0 120,312 M 120,302 Q 99.0,306.0 120,310 M 120,312 Q 90,318.0 120,324 M 120,314 Q 99.0,318.0 120,322 M 120,324 Q 90,330.0 120,336 M 120,326 Q 99.0,330.0 120,334 M 120,336 Q 90,342.0 120,348 M 120,338 Q 99.0,342.0 120,346 M 120,348 Q 90,354.0 120,360 M 120,350 Q 99.0,354.0 120,358 M 120,360 Q 90,366.0 120,372 M 120,362 Q 99.0,366.0 120,370 M 120,372 Q 90,378.0 120,384 M 120,374 Q 99.0,378.0 120,382 M 120,384 Q 90,390.0 120,396 M 120,386 Q 99.0,390.0 120,394 M 120,396 Q 90,402.0 120,408 M 120,398 Q 99.0,402.0 120,406 M 120,408 Q 90,414.0 120,420 M 120,410 Q 99.0,414.0 120,418 M 120,420 Q 90,426.0 120,432 M 120,422 Q 99.0,426.0 120,430 M 120,432 Q 90,438.0 120,444 M 120,434 Q 99.0,438.0 120,442 M 120,444 Q 90,450.0 120,456 M 120,446 Q 99.0,450.0 120,454 M 120,456 Q 90,462.0 120,468 M 120,458 Q 99.0,462.0 120,466 M 120,468 Q 90,474.0 120,480 M 120,470 Q 99.0,474.0 120,478 M 120,480 Q 90,486.0 120,492 M 120,482 Q 99.0,486.0 120,490 M 120,492 Q 90,498.0 120,504 M 120,494 Q 99.0,498.0 120,502 M 120,504 Q 90,510.0 120,516 M 120,506 Q 99.0,510.0 120,514 M 120,516 Q 90,522.0 120,528 M 120,518 Q 99.0,522.0 120,526 M 120,528 Q 90,534.0 120,540 M 120,530 Q 99.0,534.0 120,538 M 120,540 Q 90,546.0 120,552 M 120,542 Q 99.0,546.0 120,550 M 120,552 Q 90,558.0 120,564 M 120,554 Q 99.0,558.0 120,562 M 120,564 Q 90,570.0 120,576 M 120,566 Q 99.0,570.0 120,574 M 120,576 Q 90,582.0 120,588 M 120,578 Q 99.0,582.0 120,586 M 120,588 Q 90,594.0 120,600 M 120,590 Q 99.0,594.0 120,598 M 120,600 Q 90,606.0 120,612 M 120,602 Q 99.0,606.0 120,610 M 120,612 Q 90,618.0 120,624 M 120,614 Q 99.0,618.0 120,622 M 120,624 Q 90,630.0 120,636 M 120,626 Q 99.0,630.0 120,634 M 120,636 Q 90,642.0 120,648 M 120,638 Q 99.0,642.0 120,646 M 120,648 Q 90,654.0 120,660 M 120,650 Q 99.0,654.0 120,658 M 120,660 Q 90,666.0 120,672 M 120,662 Q 99.0,666.0 120,670 M 120,672 Q 90,678.0 120,684 M 120,674 Q 99.0,678.0 120,682 M 120,684 Q 90,690.0 120,696 M 120,686 Q 99.0,690.0 120,694 M 120,696 Q 90,702.0 120,708 M 120,698 Q 99.0,702.0 120,706 M 120,708 Q 90,714.0 120,720 M 120,710 Q 99.0,714.0 120,718 M 120,720 Q 90,726.0 120,732 M 120,722 Q 99.0,726.0 120,730 M 120,732 Q 90,738.0 120,744 M 120,734 Q 99.0,738.0 120,742 M 120,744 Q 90,750.0 120,756 M 120,746 Q 99.0,750.0 120,754 M 120,756 Q 90,762.0 120,768 M 120,758 Q 99.0,762.0 120,766 M 120,768 Q 90,774.0 120,780 M 120,770 Q 99.0,774.0 120,778 M 120,780 Q 90,786.0 120,792 M 120,782 Q 99.0,786.0 120,790 M 120,792 Q 90,798.0 120,804 M 120,794 Q 99.0,798.0 120,802 M 120,804 Q 90,810.0 120,816 M 120,806 Q 99.0,810.0 120,814 M 120,816 Q 90,822.0 120,828 M 120,818 Q 99.0,822.0 120,826 M 120,828 Q 90,834.0 120,840 M 120,830 Q 99.0,834.0 120,838 M 120,840 Q 90,846.0 120,852 M 120,842 Q 99.0,846.0 120,850 M 120,852 Q 90,858.0 120,864 M 120,854 Q 99.0,858.0 120,862 M 120,864 Q 90,870.0 120,876 M 120,866 Q 99.0,870.0 120,874 M 120,876 Q 90,882.0 120,888 M 120,878 Q 99.0,882.0 120,886 M 120,888 Q 90,894.0 120,900 M 120,890 Q 99.0,894.0 120,898 M 120,900 Q 90,906.0 120,912 M 120,902 Q 99.0,906.0 120,910 M 120,912 Q 90,918.0 120,924 M 120,914 Q 99.0,918.0 120,922 M 120,924 Q 90,930.0 120,936 M 120,926 Q 99.0,930.0 120,934 M 120,936 Q 90,942.0 120,948 M 120,938 Q 99.0,942.0 120,946 M 120,948 Q 90,954.0 120,960 M 120,950 Q 99.0,954.0 120,958 M 120,960 Q 90,966.0 120,972 M 120,962 Q 99.0,966.0 120,970" /><path d="M 612,120 Q 642,126.0 612,132 M 612,122 Q 633.0,126.0 612,130 M 612,132 Q 642,138.0 612,144 M 612,134 Q 633.0,138.0 612,142 M 612,144 Q 642,150.0 612,156 M 612,146 Q 633.0,150.0 612,154 M 612,156 Q 642,162.0 612,168 M 612,158 Q 633.0,162.0 612,166 M 612,168 Q 642,174.0 612,180 M 612,170 Q 633.0,174.0 612,178 M 612,180 Q 642,186.0 612,192 M 612,182 Q 633.0,186.0 612,190 M 612,192 Q 642,198.0 612,204 M 612,194 Q 633.0,198.0 612,202 M 612,204 Q 642,210.0 612,216 M 612,206 Q 633.0,210.0 612,214 M 612,216 Q 642,222.0 612,228 M 612,218 Q 633.0,222.0 612,226 M 612,228 Q 642,234.0 612,240 M 612,230 Q 633.0,234.0 612,238 M 612,240 Q 642,246.0 612,252 M 612,242 Q 633.0,246.0 612,250 M 612,252 Q 642,258.0 612,264 M 612,254 Q 633.0,258.0 612,262 M 612,264 Q 642,270.0 612,276 M 612,266 Q 633.0,270.0 612,274 M 612,276 Q 642,282.0 612,288 M 612,278 Q 633.0,282.0 612,286 M 612,288 Q 642,294.0 612,300 M 612,290 Q 633.0,294.0 612,298 M 612,300 Q 642,306.0 612,312 M 612,302 Q 633.0,306.0 612,310 M 612,312 Q 642,318.0 612,324 M 612,314 Q 633.0,318.0 612,322 M 612,324 Q 642,330.0 612,336 M 612,326 Q 633.0,330.0 612,334 M 612,336 Q 642,342.0 612,348 M 612,338 Q 633.0,342.0 612,346 M 612,348 Q 642,354.0 612,360 M 612,350 Q 633.0,354.0 612,358 M 612,360 Q 642,366.0 612,372 M 612,362 Q 633.0,366.0 612,370 M 612,372 Q 642,378.0 612,384 M 612,374 Q 633.0,378.0 612,382 M 612,384 Q 642,390.0 612,396 M 612,386 Q 633.0,390.0 612,394 M 612,396 Q 642,402.0 612,408 M 612,398 Q 633.0,402.0 612,406 M 612,408 Q 642,414.0 612,420 M 612,410 Q 633.0,414.0 612,418 M 612,420 Q 642,426.0 612,432 M 612,422 Q 633.0,426.0 612,430 M 612,432 Q 642,438.0 612,444 M 612,434 Q 633.0,438.0 612,442 M 612,444 Q 642,450.0 612,456 M 612,446 Q 633.0,450.0 612,454 M 612,456 Q 642,462.0 612,468 M 612,458 Q 633.0,462.0 612,466 M 612,468 Q 642,474.0 612,480 M 612,470 Q 633.0,474.0 612,478 M 612,480 Q 642,486.0 612,492 M 612,482 Q 633.0,486.0 612,490 M 612,492 Q 642,498.0 612,504 M 612,494 Q 633.0,498.0 612,502 M 612,504 Q 642,510.0 612,516 M 612,506 Q 633.0,510.0 612,514 M 612,516 Q 642,522.0 612,528 M 612,518 Q 633.0,522.0 612,526 M 612,528 Q 642,534.0 612,540 M 612,530 Q 633.0,534.0 612,538 M 612,540 Q 642,546.0 612,552 M 612,542 Q 633.0,546.0 612,550 M 612,552 Q 642,558.0 612,564 M 612,554 Q 633.0,558.0 612,562 M 612,564 Q 642,570.0 612,576 M 612,566 Q 633.0,570.0 612,574 M 612,576 Q 642,582.0 612,588 M 612,578 Q 633.0,582.0 612,586 M 612,588 Q 642,594.0 612,600 M 612,590 Q 633.0,594.0 612,598 M 612,600 Q 642,606.0 612,612 M 612,602 Q 633.0,606.0 612,610 M 612,612 Q 642,618.0 612,624 M 612,614 Q 633.0,618.0 612,622 M 612,624 Q 642,630.0 612,636 M 612,626 Q 633.0,630.0 612,634 M 612,636 Q 642,642.0 612,648 M 612,638 Q 633.0,642.0 612,646 M 612,648 Q 642,654.0 612,660 M 612,650 Q 633.0,654.0 612,658 M 612,660 Q 642,666.0 612,672 M 612,662 Q 633.0,666.0 612,670 M 612,672 Q 642,678.0 612,684 M 612,674 Q 633.0,678.0 612,682 M 612,684 Q 642,690.0 612,696 M 612,686 Q 633.0,690.0 612,694 M 612,696 Q 642,702.0 612,708 M 612,698 Q 633.0,702.0 612,706 M 612,708 Q 642,714.0 612,720 M 612,710 Q 633.0,714.0 612,718 M 612,720 Q 642,726.0 612,732 M 612,722 Q 633.0,726.0 612,730 M 612,732 Q 642,738.0 612,744 M 612,734 Q 633.0,738.0 612,742 M 612,744 Q 642,750.0 612,756 M 612,746 Q 633.0,750.0 612,754 M 612,756 Q 642,762.0 612,768 M 612,758 Q 633.0,762.0 612,766 M 612,768 Q 642,774.0 612,780 M 612,770 Q 633.0,774.0 612,778 M 612,780 Q 642,786.0 612,792 M 612,782 Q 633.0,786.0 612,790 M 612,792 Q 642,798.0 612,804 M 612,794 Q 633.0,798.0 612,802 M 612,804 Q 642,810.0 612,816 M 612,806 Q 633.0,810.0 612,814 M 612,816 Q 642,822.0 612,828 M 612,818 Q 633.0,822.0 612,826 M 612,828 Q 642,834.0 612,840 M 612,830 Q 633.0,834.0 612,838 M 612,840 Q 642,846.0 612,852 M 612,842 Q 633.0,846.0 612,850 M 612,852 Q 642,858.0 612,864 M 612,854 Q 633.0,858.0 612,862 M 612,864 Q 642,870.0 612,876 M 612,866 Q 633.0,870.0 612,874 M 612,876 Q 642,882.0 612,888 M 612,878 Q 633.0,882.0 612,886 M 612,888 Q 642,894.0 612,900 M 612,890 Q 633.0,894.0 612,898 M 612,900 Q 642,906.0 612,912 M 612,902 Q 633.0,906.0 612,910 M 612,912 Q 642,918.0 612,924 M 612,914 Q 633.0,918.0 612,922 M 612,924 Q 642,930.0 612,936 M 612,926 Q 633.0,930.0 612,934 M 612,936 Q 642,942.0 612,948 M 612,938 Q 633.0,942.0 612,946 M 612,948 Q 642,954.0 612,960 M 612,950 Q 633.0,954.0 612,958 M 612,960 Q 642,966.0 612,972 M 612,962 Q 633.0,966.0 612,970" /></g><rect fill="url(#guilloche_bg)" height="861" width="492" x="120" y="120" /><g><circle cx="110" cy="110" fill="#A885C4" r="55" stroke="none" /><circle cx="110" cy="110" fill="none" r="55" stroke="#000000" stroke-width="3" /><circle cx="110" cy="110" fill="none" r="47" stroke="#000000" stroke-width="1.5" /></g><g><circle cx="622" cy="991" fill="#A885C4" r="55" stroke="none" /><circle cx="622" cy="991" fill="none" r="55" stroke="#000000" stroke-width="3" /><circle cx="622" cy="991" fill="none" r="47" stroke="#000000" stroke-width="1.5" /></g><circle cx="366.0" cy="550.5" fill="#A885C4" r="200" stroke="none" /><circle cx="366.0" cy="550.5" fill="none" r="200" stroke="#000000" stroke-width="5" /><circle cx="366.0" cy="550.5" fill="none" r="188" stroke="#000000" stroke-width="2" /></svg>